<mxfile host="app.diagrams.net" agent="Mozilla/5.0 (Windows NT 10.0; Win64; x64) AppleWebKit/537.36 (KHTML, like Gecko) Chrome/129.0.0.0 Safari/537.36 Edg/129.0.0.0" version="24.7.17">
  <diagram name="Page-1" id="xua-277b1mrQftys2hNf">
    <mxGraphModel dx="2520" dy="1522" grid="1" gridSize="10" guides="1" tooltips="1" connect="1" arrows="1" fold="1" page="1" pageScale="1" pageWidth="850" pageHeight="1100" math="0" shadow="0">
      <root>
        <mxCell id="0" />
        <mxCell id="1" parent="0" />
        <mxCell id="_h28uudLg6-hIbI_Wmnv-2" value="Public" style="shape=umlActor;html=1;verticalLabelPosition=bottom;verticalAlign=top;align=center;" vertex="1" parent="1">
          <mxGeometry x="110" y="410" width="30" height="60" as="geometry" />
        </mxCell>
        <mxCell id="_h28uudLg6-hIbI_Wmnv-3" value="Lesson Booking System" style="shape=rect;html=1;verticalAlign=top;fontStyle=1;whiteSpace=wrap;align=center;fillColor=#CCE5FF;" vertex="1" parent="1">
          <mxGeometry x="210" y="310" width="640" height="1290" as="geometry" />
        </mxCell>
        <mxCell id="_h28uudLg6-hIbI_Wmnv-27" style="edgeStyle=none;shape=connector;rounded=0;orthogonalLoop=1;jettySize=auto;html=1;exitX=0.5;exitY=0.5;exitDx=0;exitDy=0;exitPerimeter=0;entryX=0;entryY=0.5;entryDx=0;entryDy=0;strokeColor=default;align=center;verticalAlign=middle;fontFamily=Helvetica;fontSize=11;fontColor=default;labelBackgroundColor=default;endArrow=none;" edge="1" parent="1" source="_h28uudLg6-hIbI_Wmnv-4" target="_h28uudLg6-hIbI_Wmnv-24">
          <mxGeometry relative="1" as="geometry" />
        </mxCell>
        <mxCell id="_h28uudLg6-hIbI_Wmnv-31" style="edgeStyle=none;shape=connector;rounded=0;orthogonalLoop=1;jettySize=auto;html=1;exitX=0.5;exitY=0.5;exitDx=0;exitDy=0;exitPerimeter=0;entryX=0;entryY=0.5;entryDx=0;entryDy=0;strokeColor=default;align=center;verticalAlign=middle;fontFamily=Helvetica;fontSize=11;fontColor=default;labelBackgroundColor=default;endArrow=none;" edge="1" parent="1" source="_h28uudLg6-hIbI_Wmnv-4" target="_h28uudLg6-hIbI_Wmnv-16">
          <mxGeometry relative="1" as="geometry" />
        </mxCell>
        <mxCell id="_h28uudLg6-hIbI_Wmnv-45" style="edgeStyle=none;shape=connector;rounded=0;orthogonalLoop=1;jettySize=auto;html=1;exitX=0.5;exitY=0.5;exitDx=0;exitDy=0;exitPerimeter=0;entryX=0;entryY=0.5;entryDx=0;entryDy=0;strokeColor=default;align=center;verticalAlign=middle;fontFamily=Helvetica;fontSize=11;fontColor=default;labelBackgroundColor=default;endArrow=none;" edge="1" parent="1" source="_h28uudLg6-hIbI_Wmnv-4" target="_h28uudLg6-hIbI_Wmnv-22">
          <mxGeometry relative="1" as="geometry" />
        </mxCell>
        <mxCell id="_h28uudLg6-hIbI_Wmnv-4" value="Client" style="shape=umlActor;html=1;verticalLabelPosition=bottom;verticalAlign=top;align=center;" vertex="1" parent="1">
          <mxGeometry x="110" y="595" width="30" height="60" as="geometry" />
        </mxCell>
        <mxCell id="_h28uudLg6-hIbI_Wmnv-56" style="edgeStyle=none;shape=connector;rounded=0;orthogonalLoop=1;jettySize=auto;html=1;exitX=0.5;exitY=0;exitDx=0;exitDy=0;exitPerimeter=0;strokeColor=default;align=center;verticalAlign=middle;fontFamily=Helvetica;fontSize=11;fontColor=default;labelBackgroundColor=default;endArrow=none;" edge="1" parent="1" source="_h28uudLg6-hIbI_Wmnv-5">
          <mxGeometry relative="1" as="geometry">
            <mxPoint x="124.52941176470586" y="679.9999999999998" as="targetPoint" />
          </mxGeometry>
        </mxCell>
        <mxCell id="_h28uudLg6-hIbI_Wmnv-5" value="Guardian" style="shape=umlActor;html=1;verticalLabelPosition=bottom;verticalAlign=top;align=center;" vertex="1" parent="1">
          <mxGeometry x="110" y="730" width="30" height="60" as="geometry" />
        </mxCell>
        <mxCell id="_h28uudLg6-hIbI_Wmnv-28" style="edgeStyle=none;shape=connector;rounded=0;orthogonalLoop=1;jettySize=auto;html=1;exitX=0.5;exitY=0.5;exitDx=0;exitDy=0;exitPerimeter=0;entryX=0;entryY=0.5;entryDx=0;entryDy=0;strokeColor=default;align=center;verticalAlign=middle;fontFamily=Helvetica;fontSize=11;fontColor=default;labelBackgroundColor=default;endArrow=none;" edge="1" parent="1" source="_h28uudLg6-hIbI_Wmnv-11" target="_h28uudLg6-hIbI_Wmnv-23">
          <mxGeometry relative="1" as="geometry" />
        </mxCell>
        <mxCell id="_h28uudLg6-hIbI_Wmnv-55" style="edgeStyle=none;shape=connector;rounded=0;orthogonalLoop=1;jettySize=auto;html=1;exitX=0.5;exitY=0.5;exitDx=0;exitDy=0;exitPerimeter=0;entryX=0;entryY=0.5;entryDx=0;entryDy=0;strokeColor=default;align=center;verticalAlign=middle;fontFamily=Helvetica;fontSize=11;fontColor=default;labelBackgroundColor=default;endArrow=none;" edge="1" parent="1" source="_h28uudLg6-hIbI_Wmnv-11" target="_h28uudLg6-hIbI_Wmnv-53">
          <mxGeometry relative="1" as="geometry" />
        </mxCell>
        <mxCell id="_h28uudLg6-hIbI_Wmnv-11" value="Instructor" style="shape=umlActor;verticalLabelPosition=bottom;verticalAlign=top;html=1;outlineConnect=0;" vertex="1" parent="1">
          <mxGeometry x="110" y="965" width="30" height="60" as="geometry" />
        </mxCell>
        <mxCell id="_h28uudLg6-hIbI_Wmnv-12" value="Organization" style="shape=umlActor;verticalLabelPosition=bottom;verticalAlign=top;html=1;outlineConnect=0;" vertex="1" parent="1">
          <mxGeometry x="110" y="1105" width="30" height="60" as="geometry" />
        </mxCell>
        <mxCell id="_h28uudLg6-hIbI_Wmnv-50" style="edgeStyle=none;shape=connector;rounded=0;orthogonalLoop=1;jettySize=auto;html=1;exitX=0.5;exitY=0.5;exitDx=0;exitDy=0;exitPerimeter=0;entryX=0;entryY=0.5;entryDx=0;entryDy=0;strokeColor=default;align=center;verticalAlign=middle;fontFamily=Helvetica;fontSize=11;fontColor=default;labelBackgroundColor=default;endArrow=none;" edge="1" parent="1" source="_h28uudLg6-hIbI_Wmnv-15" target="_h28uudLg6-hIbI_Wmnv-47">
          <mxGeometry relative="1" as="geometry" />
        </mxCell>
        <mxCell id="_h28uudLg6-hIbI_Wmnv-51" style="edgeStyle=none;shape=connector;rounded=0;orthogonalLoop=1;jettySize=auto;html=1;exitX=0.5;exitY=0.5;exitDx=0;exitDy=0;exitPerimeter=0;entryX=0;entryY=0.5;entryDx=0;entryDy=0;strokeColor=default;align=center;verticalAlign=middle;fontFamily=Helvetica;fontSize=11;fontColor=default;labelBackgroundColor=default;endArrow=none;" edge="1" parent="1" source="_h28uudLg6-hIbI_Wmnv-15" target="_h28uudLg6-hIbI_Wmnv-48">
          <mxGeometry relative="1" as="geometry" />
        </mxCell>
        <mxCell id="_h28uudLg6-hIbI_Wmnv-52" style="edgeStyle=none;shape=connector;rounded=0;orthogonalLoop=1;jettySize=auto;html=1;exitX=0.5;exitY=0.5;exitDx=0;exitDy=0;exitPerimeter=0;entryX=0;entryY=0.5;entryDx=0;entryDy=0;strokeColor=default;align=center;verticalAlign=middle;fontFamily=Helvetica;fontSize=11;fontColor=default;labelBackgroundColor=default;endArrow=none;" edge="1" parent="1" source="_h28uudLg6-hIbI_Wmnv-15" target="_h28uudLg6-hIbI_Wmnv-49">
          <mxGeometry relative="1" as="geometry" />
        </mxCell>
        <mxCell id="_h28uudLg6-hIbI_Wmnv-15" value="Administrator" style="shape=umlActor;html=1;verticalLabelPosition=bottom;verticalAlign=top;align=center;" vertex="1" parent="1">
          <mxGeometry x="110" y="1380" width="30" height="60" as="geometry" />
        </mxCell>
        <mxCell id="_h28uudLg6-hIbI_Wmnv-33" style="edgeStyle=none;shape=connector;rounded=0;orthogonalLoop=1;jettySize=auto;html=1;entryX=0;entryY=0.5;entryDx=0;entryDy=0;strokeColor=default;align=center;verticalAlign=middle;fontFamily=Helvetica;fontSize=11;fontColor=default;labelBackgroundColor=default;endArrow=none;exitX=1;exitY=0.5;exitDx=0;exitDy=0;" edge="1" parent="1" source="_h28uudLg6-hIbI_Wmnv-17" target="_h28uudLg6-hIbI_Wmnv-32">
          <mxGeometry relative="1" as="geometry" />
        </mxCell>
        <mxCell id="_h28uudLg6-hIbI_Wmnv-34" value="&amp;lt;&amp;lt;include&amp;gt;&amp;gt;" style="edgeLabel;html=1;align=center;verticalAlign=middle;resizable=0;points=[];fontFamily=Helvetica;fontSize=11;fontColor=default;labelBackgroundColor=default;" vertex="1" connectable="0" parent="_h28uudLg6-hIbI_Wmnv-33">
          <mxGeometry x="-0.2282" y="3" relative="1" as="geometry">
            <mxPoint as="offset" />
          </mxGeometry>
        </mxCell>
        <mxCell id="_h28uudLg6-hIbI_Wmnv-16" value="View Offerings with instructor" style="ellipse;whiteSpace=wrap;html=1;" vertex="1" parent="1">
          <mxGeometry x="320" y="350" width="140" height="70" as="geometry" />
        </mxCell>
        <mxCell id="_h28uudLg6-hIbI_Wmnv-17" value="Login" style="ellipse;whiteSpace=wrap;html=1;" vertex="1" parent="1">
          <mxGeometry x="320" y="590" width="140" height="70" as="geometry" />
        </mxCell>
        <mxCell id="_h28uudLg6-hIbI_Wmnv-37" style="edgeStyle=none;shape=connector;rounded=0;orthogonalLoop=1;jettySize=auto;html=1;exitX=1;exitY=0.5;exitDx=0;exitDy=0;entryX=0;entryY=0;entryDx=0;entryDy=0;strokeColor=default;align=center;verticalAlign=middle;fontFamily=Helvetica;fontSize=11;fontColor=default;labelBackgroundColor=default;endArrow=none;" edge="1" parent="1" source="_h28uudLg6-hIbI_Wmnv-18" target="_h28uudLg6-hIbI_Wmnv-36">
          <mxGeometry relative="1" as="geometry" />
        </mxCell>
        <mxCell id="_h28uudLg6-hIbI_Wmnv-38" value="&amp;lt;&amp;lt;include&amp;gt;&amp;gt;" style="edgeLabel;html=1;align=center;verticalAlign=middle;resizable=0;points=[];fontFamily=Helvetica;fontSize=11;fontColor=default;labelBackgroundColor=default;" vertex="1" connectable="0" parent="_h28uudLg6-hIbI_Wmnv-37">
          <mxGeometry x="-0.2799" y="-3" relative="1" as="geometry">
            <mxPoint as="offset" />
          </mxGeometry>
        </mxCell>
        <mxCell id="_h28uudLg6-hIbI_Wmnv-18" value="Set Offer" style="ellipse;whiteSpace=wrap;html=1;" vertex="1" parent="1">
          <mxGeometry x="320" y="1100" width="140" height="70" as="geometry" />
        </mxCell>
        <mxCell id="_h28uudLg6-hIbI_Wmnv-19" value="Verify available space and timeslot" style="ellipse;whiteSpace=wrap;html=1;" vertex="1" parent="1">
          <mxGeometry x="560" y="1050" width="140" height="70" as="geometry" />
        </mxCell>
        <mxCell id="_h28uudLg6-hIbI_Wmnv-21" value="" style="edgeStyle=none;html=1;endArrow=none;verticalAlign=bottom;rounded=0;entryX=0;entryY=0.5;entryDx=0;entryDy=0;exitX=1;exitY=0.5;exitDx=0;exitDy=0;" edge="1" parent="1" source="_h28uudLg6-hIbI_Wmnv-18" target="_h28uudLg6-hIbI_Wmnv-19">
          <mxGeometry width="160" relative="1" as="geometry">
            <mxPoint x="450" y="1130" as="sourcePoint" />
            <mxPoint x="610" y="1130" as="targetPoint" />
          </mxGeometry>
        </mxCell>
        <mxCell id="_h28uudLg6-hIbI_Wmnv-35" value="&amp;lt;&amp;lt;include&amp;gt;&amp;gt;" style="edgeLabel;html=1;align=center;verticalAlign=middle;resizable=0;points=[];fontFamily=Helvetica;fontSize=11;fontColor=default;labelBackgroundColor=default;" vertex="1" connectable="0" parent="_h28uudLg6-hIbI_Wmnv-21">
          <mxGeometry x="-0.2101" y="-2" relative="1" as="geometry">
            <mxPoint x="1" as="offset" />
          </mxGeometry>
        </mxCell>
        <mxCell id="_h28uudLg6-hIbI_Wmnv-41" style="edgeStyle=none;shape=connector;rounded=0;orthogonalLoop=1;jettySize=auto;html=1;exitX=1;exitY=0.5;exitDx=0;exitDy=0;entryX=0;entryY=0.5;entryDx=0;entryDy=0;strokeColor=default;align=center;verticalAlign=middle;fontFamily=Helvetica;fontSize=11;fontColor=default;labelBackgroundColor=default;endArrow=none;" edge="1" parent="1" source="_h28uudLg6-hIbI_Wmnv-22" target="_h28uudLg6-hIbI_Wmnv-39">
          <mxGeometry relative="1" as="geometry" />
        </mxCell>
        <mxCell id="_h28uudLg6-hIbI_Wmnv-43" value="&amp;lt;&amp;lt;extends&amp;gt;&amp;gt;" style="edgeLabel;html=1;align=center;verticalAlign=middle;resizable=0;points=[];fontFamily=Helvetica;fontSize=11;fontColor=default;labelBackgroundColor=default;" vertex="1" connectable="0" parent="_h28uudLg6-hIbI_Wmnv-41">
          <mxGeometry x="-0.0271" y="1" relative="1" as="geometry">
            <mxPoint as="offset" />
          </mxGeometry>
        </mxCell>
        <mxCell id="_h28uudLg6-hIbI_Wmnv-42" style="edgeStyle=none;shape=connector;rounded=0;orthogonalLoop=1;jettySize=auto;html=1;exitX=1;exitY=0.5;exitDx=0;exitDy=0;entryX=0;entryY=0.5;entryDx=0;entryDy=0;strokeColor=default;align=center;verticalAlign=middle;fontFamily=Helvetica;fontSize=11;fontColor=default;labelBackgroundColor=default;endArrow=none;" edge="1" parent="1" source="_h28uudLg6-hIbI_Wmnv-22" target="_h28uudLg6-hIbI_Wmnv-40">
          <mxGeometry relative="1" as="geometry" />
        </mxCell>
        <mxCell id="_h28uudLg6-hIbI_Wmnv-44" value="&amp;lt;&amp;lt;extends&amp;gt;&amp;gt;" style="edgeLabel;html=1;align=center;verticalAlign=middle;resizable=0;points=[];fontFamily=Helvetica;fontSize=11;fontColor=default;labelBackgroundColor=default;" vertex="1" connectable="0" parent="_h28uudLg6-hIbI_Wmnv-42">
          <mxGeometry x="-0.1362" y="1" relative="1" as="geometry">
            <mxPoint as="offset" />
          </mxGeometry>
        </mxCell>
        <mxCell id="_h28uudLg6-hIbI_Wmnv-22" value="View Bookings" style="ellipse;whiteSpace=wrap;html=1;" vertex="1" parent="1">
          <mxGeometry x="320" y="810" width="140" height="70" as="geometry" />
        </mxCell>
        <mxCell id="_h28uudLg6-hIbI_Wmnv-23" value="View Offerings w/out instructors assigned" style="ellipse;whiteSpace=wrap;html=1;" vertex="1" parent="1">
          <mxGeometry x="320" y="960" width="140" height="70" as="geometry" />
        </mxCell>
        <mxCell id="_h28uudLg6-hIbI_Wmnv-80" style="edgeStyle=none;shape=connector;rounded=0;orthogonalLoop=1;jettySize=auto;html=1;exitX=1;exitY=0.5;exitDx=0;exitDy=0;strokeColor=default;align=center;verticalAlign=middle;fontFamily=Helvetica;fontSize=11;fontColor=default;labelBackgroundColor=default;endArrow=none;" edge="1" parent="1" source="_h28uudLg6-hIbI_Wmnv-24">
          <mxGeometry relative="1" as="geometry">
            <mxPoint x="1000" y="670" as="targetPoint" />
            <Array as="points">
              <mxPoint x="860" y="720" />
            </Array>
          </mxGeometry>
        </mxCell>
        <mxCell id="_h28uudLg6-hIbI_Wmnv-24" value="Make Booking" style="ellipse;whiteSpace=wrap;html=1;" vertex="1" parent="1">
          <mxGeometry x="320" y="690" width="140" height="70" as="geometry" />
        </mxCell>
        <mxCell id="_h28uudLg6-hIbI_Wmnv-26" value="" style="endArrow=none;html=1;rounded=0;exitX=0.5;exitY=0.5;exitDx=0;exitDy=0;exitPerimeter=0;entryX=0;entryY=0.5;entryDx=0;entryDy=0;" edge="1" parent="1" source="_h28uudLg6-hIbI_Wmnv-4" target="_h28uudLg6-hIbI_Wmnv-17">
          <mxGeometry width="50" height="50" relative="1" as="geometry">
            <mxPoint x="220" y="620" as="sourcePoint" />
            <mxPoint x="270" y="570" as="targetPoint" />
          </mxGeometry>
        </mxCell>
        <mxCell id="_h28uudLg6-hIbI_Wmnv-29" style="edgeStyle=none;shape=connector;rounded=0;orthogonalLoop=1;jettySize=auto;html=1;exitX=0.5;exitY=0.5;exitDx=0;exitDy=0;exitPerimeter=0;entryX=0.048;entryY=0.506;entryDx=0;entryDy=0;entryPerimeter=0;strokeColor=default;align=center;verticalAlign=middle;fontFamily=Helvetica;fontSize=11;fontColor=default;labelBackgroundColor=default;endArrow=none;" edge="1" parent="1" source="_h28uudLg6-hIbI_Wmnv-12" target="_h28uudLg6-hIbI_Wmnv-18">
          <mxGeometry relative="1" as="geometry" />
        </mxCell>
        <mxCell id="_h28uudLg6-hIbI_Wmnv-30" style="edgeStyle=none;shape=connector;rounded=0;orthogonalLoop=1;jettySize=auto;html=1;exitX=0.5;exitY=0.5;exitDx=0;exitDy=0;exitPerimeter=0;entryX=0;entryY=0.5;entryDx=0;entryDy=0;strokeColor=default;align=center;verticalAlign=middle;fontFamily=Helvetica;fontSize=11;fontColor=default;labelBackgroundColor=default;endArrow=none;" edge="1" parent="1" source="_h28uudLg6-hIbI_Wmnv-2" target="_h28uudLg6-hIbI_Wmnv-16">
          <mxGeometry relative="1" as="geometry" />
        </mxCell>
        <mxCell id="_h28uudLg6-hIbI_Wmnv-32" value="Verify Credentials" style="ellipse;whiteSpace=wrap;html=1;fontFamily=Helvetica;fontSize=11;fontColor=default;labelBackgroundColor=default;" vertex="1" parent="1">
          <mxGeometry x="560" y="590" width="140" height="70" as="geometry" />
        </mxCell>
        <mxCell id="_h28uudLg6-hIbI_Wmnv-79" style="edgeStyle=none;shape=connector;rounded=0;orthogonalLoop=1;jettySize=auto;html=1;exitX=1;exitY=0.5;exitDx=0;exitDy=0;strokeColor=default;align=center;verticalAlign=middle;fontFamily=Helvetica;fontSize=11;fontColor=default;labelBackgroundColor=default;endArrow=none;" edge="1" parent="1" source="_h28uudLg6-hIbI_Wmnv-36">
          <mxGeometry relative="1" as="geometry">
            <mxPoint x="1000" y="670" as="targetPoint" />
            <Array as="points">
              <mxPoint x="860" y="1215" />
            </Array>
          </mxGeometry>
        </mxCell>
        <mxCell id="_h28uudLg6-hIbI_Wmnv-36" value="Add to list of offerings&lt;div&gt;&amp;nbsp;for instructors&lt;/div&gt;" style="ellipse;whiteSpace=wrap;html=1;fontFamily=Helvetica;fontSize=11;fontColor=default;labelBackgroundColor=default;" vertex="1" parent="1">
          <mxGeometry x="560" y="1180" width="140" height="70" as="geometry" />
        </mxCell>
        <mxCell id="_h28uudLg6-hIbI_Wmnv-39" value="View Booking Details" style="ellipse;whiteSpace=wrap;html=1;fontFamily=Helvetica;fontSize=11;fontColor=default;labelBackgroundColor=default;" vertex="1" parent="1">
          <mxGeometry x="560" y="740" width="140" height="70" as="geometry" />
        </mxCell>
        <mxCell id="_h28uudLg6-hIbI_Wmnv-78" style="edgeStyle=none;shape=connector;rounded=0;orthogonalLoop=1;jettySize=auto;html=1;exitX=1;exitY=0.5;exitDx=0;exitDy=0;strokeColor=default;align=center;verticalAlign=middle;fontFamily=Helvetica;fontSize=11;fontColor=default;labelBackgroundColor=default;endArrow=none;" edge="1" parent="1" source="_h28uudLg6-hIbI_Wmnv-40">
          <mxGeometry relative="1" as="geometry">
            <mxPoint x="1000" y="670" as="targetPoint" />
            <Array as="points">
              <mxPoint x="860" y="915" />
            </Array>
          </mxGeometry>
        </mxCell>
        <mxCell id="_h28uudLg6-hIbI_Wmnv-40" value="Cancel Booking" style="ellipse;whiteSpace=wrap;html=1;fontFamily=Helvetica;fontSize=11;fontColor=default;labelBackgroundColor=default;" vertex="1" parent="1">
          <mxGeometry x="560" y="880" width="140" height="70" as="geometry" />
        </mxCell>
        <mxCell id="_h28uudLg6-hIbI_Wmnv-47" value="Read Record" style="ellipse;whiteSpace=wrap;html=1;fontFamily=Helvetica;fontSize=11;fontColor=default;labelBackgroundColor=default;" vertex="1" parent="1">
          <mxGeometry x="320" y="1280" width="140" height="70" as="geometry" />
        </mxCell>
        <mxCell id="_h28uudLg6-hIbI_Wmnv-75" style="edgeStyle=none;shape=connector;rounded=0;orthogonalLoop=1;jettySize=auto;html=1;exitX=1;exitY=0.5;exitDx=0;exitDy=0;strokeColor=default;align=center;verticalAlign=middle;fontFamily=Helvetica;fontSize=11;fontColor=default;labelBackgroundColor=default;endArrow=none;" edge="1" parent="1" source="_h28uudLg6-hIbI_Wmnv-48">
          <mxGeometry relative="1" as="geometry">
            <mxPoint x="860" y="1350" as="targetPoint" />
          </mxGeometry>
        </mxCell>
        <mxCell id="_h28uudLg6-hIbI_Wmnv-48" value="Write Record" style="ellipse;whiteSpace=wrap;html=1;fontFamily=Helvetica;fontSize=11;fontColor=default;labelBackgroundColor=default;" vertex="1" parent="1">
          <mxGeometry x="320" y="1380" width="140" height="70" as="geometry" />
        </mxCell>
        <mxCell id="_h28uudLg6-hIbI_Wmnv-49" value="Delete Account" style="ellipse;whiteSpace=wrap;html=1;fontFamily=Helvetica;fontSize=11;fontColor=default;labelBackgroundColor=default;" vertex="1" parent="1">
          <mxGeometry x="320" y="1480" width="140" height="70" as="geometry" />
        </mxCell>
        <mxCell id="_h28uudLg6-hIbI_Wmnv-82" style="edgeStyle=none;shape=connector;rounded=0;orthogonalLoop=1;jettySize=auto;html=1;exitX=1;exitY=0.5;exitDx=0;exitDy=0;strokeColor=default;align=center;verticalAlign=middle;fontFamily=Helvetica;fontSize=11;fontColor=default;labelBackgroundColor=default;endArrow=none;" edge="1" parent="1" source="_h28uudLg6-hIbI_Wmnv-53">
          <mxGeometry relative="1" as="geometry">
            <mxPoint x="1010" y="860.0000000000002" as="targetPoint" />
            <Array as="points">
              <mxPoint x="860" y="540" />
            </Array>
          </mxGeometry>
        </mxCell>
        <mxCell id="_h28uudLg6-hIbI_Wmnv-53" value="Register" style="ellipse;whiteSpace=wrap;html=1;fontFamily=Helvetica;fontSize=11;fontColor=default;labelBackgroundColor=default;" vertex="1" parent="1">
          <mxGeometry x="320" y="500" width="140" height="70" as="geometry" />
        </mxCell>
        <mxCell id="_h28uudLg6-hIbI_Wmnv-54" style="edgeStyle=none;shape=connector;rounded=0;orthogonalLoop=1;jettySize=auto;html=1;exitX=0.5;exitY=0.5;exitDx=0;exitDy=0;exitPerimeter=0;entryX=0;entryY=0.5;entryDx=0;entryDy=0;strokeColor=default;align=center;verticalAlign=middle;fontFamily=Helvetica;fontSize=11;fontColor=default;labelBackgroundColor=default;endArrow=none;" edge="1" parent="1" source="_h28uudLg6-hIbI_Wmnv-2" target="_h28uudLg6-hIbI_Wmnv-53">
          <mxGeometry relative="1" as="geometry" />
        </mxCell>
        <mxCell id="_h28uudLg6-hIbI_Wmnv-76" style="edgeStyle=none;shape=connector;rounded=0;orthogonalLoop=1;jettySize=auto;html=1;exitX=0.5;exitY=0.5;exitDx=0;exitDy=0;exitPerimeter=0;entryX=1;entryY=0.5;entryDx=0;entryDy=0;strokeColor=default;align=center;verticalAlign=middle;fontFamily=Helvetica;fontSize=11;fontColor=default;labelBackgroundColor=default;endArrow=none;" edge="1" parent="1" source="_h28uudLg6-hIbI_Wmnv-67" target="_h28uudLg6-hIbI_Wmnv-16">
          <mxGeometry relative="1" as="geometry">
            <Array as="points">
              <mxPoint x="860" y="390" />
            </Array>
          </mxGeometry>
        </mxCell>
        <mxCell id="_h28uudLg6-hIbI_Wmnv-67" value="Offerings DB" style="shape=umlActor;html=1;verticalLabelPosition=bottom;verticalAlign=top;align=center;" vertex="1" parent="1">
          <mxGeometry x="990" y="640" width="30" height="60" as="geometry" />
        </mxCell>
        <mxCell id="_h28uudLg6-hIbI_Wmnv-68" value="Space DB" style="shape=umlActor;html=1;verticalLabelPosition=bottom;verticalAlign=top;align=center;" vertex="1" parent="1">
          <mxGeometry x="990" y="1010" width="30" height="60" as="geometry" />
        </mxCell>
        <mxCell id="_h28uudLg6-hIbI_Wmnv-69" value="Timeslot DB" style="shape=umlActor;html=1;verticalLabelPosition=bottom;verticalAlign=top;align=center;" vertex="1" parent="1">
          <mxGeometry x="990" y="1140" width="30" height="60" as="geometry" />
        </mxCell>
        <mxCell id="_h28uudLg6-hIbI_Wmnv-70" value="Users DB" style="shape=umlActor;html=1;verticalLabelPosition=bottom;verticalAlign=top;align=center;" vertex="1" parent="1">
          <mxGeometry x="990" y="820" width="30" height="60" as="geometry" />
        </mxCell>
        <mxCell id="_h28uudLg6-hIbI_Wmnv-71" style="edgeStyle=none;shape=connector;rounded=0;orthogonalLoop=1;jettySize=auto;html=1;exitX=1;exitY=0.5;exitDx=0;exitDy=0;entryX=0.481;entryY=0.622;entryDx=0;entryDy=0;entryPerimeter=0;strokeColor=default;align=center;verticalAlign=middle;fontFamily=Helvetica;fontSize=11;fontColor=default;labelBackgroundColor=default;endArrow=none;" edge="1" parent="1" source="_h28uudLg6-hIbI_Wmnv-32" target="_h28uudLg6-hIbI_Wmnv-70">
          <mxGeometry relative="1" as="geometry">
            <Array as="points">
              <mxPoint x="860" y="625" />
            </Array>
          </mxGeometry>
        </mxCell>
        <mxCell id="_h28uudLg6-hIbI_Wmnv-72" style="edgeStyle=none;shape=connector;rounded=0;orthogonalLoop=1;jettySize=auto;html=1;exitX=1;exitY=0.5;exitDx=0;exitDy=0;entryX=0.5;entryY=0.5;entryDx=0;entryDy=0;entryPerimeter=0;strokeColor=default;align=center;verticalAlign=middle;fontFamily=Helvetica;fontSize=11;fontColor=default;labelBackgroundColor=default;endArrow=none;" edge="1" parent="1" source="_h28uudLg6-hIbI_Wmnv-49" target="_h28uudLg6-hIbI_Wmnv-70">
          <mxGeometry relative="1" as="geometry">
            <Array as="points">
              <mxPoint x="860" y="1515" />
            </Array>
          </mxGeometry>
        </mxCell>
        <mxCell id="_h28uudLg6-hIbI_Wmnv-74" style="edgeStyle=none;shape=connector;rounded=0;orthogonalLoop=1;jettySize=auto;html=1;exitX=1;exitY=0.5;exitDx=0;exitDy=0;entryX=0.5;entryY=0.5;entryDx=0;entryDy=0;entryPerimeter=0;strokeColor=default;align=center;verticalAlign=middle;fontFamily=Helvetica;fontSize=11;fontColor=default;labelBackgroundColor=default;endArrow=none;" edge="1" parent="1" source="_h28uudLg6-hIbI_Wmnv-47" target="_h28uudLg6-hIbI_Wmnv-67">
          <mxGeometry relative="1" as="geometry">
            <Array as="points">
              <mxPoint x="860" y="1350" />
            </Array>
          </mxGeometry>
        </mxCell>
        <mxCell id="_h28uudLg6-hIbI_Wmnv-77" style="edgeStyle=none;shape=connector;rounded=0;orthogonalLoop=1;jettySize=auto;html=1;exitX=1;exitY=0.5;exitDx=0;exitDy=0;entryX=0.5;entryY=0.5;entryDx=0;entryDy=0;entryPerimeter=0;strokeColor=default;align=center;verticalAlign=middle;fontFamily=Helvetica;fontSize=11;fontColor=default;labelBackgroundColor=default;endArrow=none;" edge="1" parent="1" source="_h28uudLg6-hIbI_Wmnv-39" target="_h28uudLg6-hIbI_Wmnv-67">
          <mxGeometry relative="1" as="geometry">
            <Array as="points">
              <mxPoint x="860" y="775" />
            </Array>
          </mxGeometry>
        </mxCell>
        <mxCell id="_h28uudLg6-hIbI_Wmnv-81" style="edgeStyle=none;shape=connector;rounded=0;orthogonalLoop=1;jettySize=auto;html=1;exitX=1;exitY=0.5;exitDx=0;exitDy=0;entryX=0.5;entryY=0.5;entryDx=0;entryDy=0;entryPerimeter=0;strokeColor=default;align=center;verticalAlign=middle;fontFamily=Helvetica;fontSize=11;fontColor=default;labelBackgroundColor=default;endArrow=none;" edge="1" parent="1" source="_h28uudLg6-hIbI_Wmnv-23" target="_h28uudLg6-hIbI_Wmnv-67">
          <mxGeometry relative="1" as="geometry">
            <Array as="points">
              <mxPoint x="860" y="990" />
            </Array>
          </mxGeometry>
        </mxCell>
        <mxCell id="_h28uudLg6-hIbI_Wmnv-83" style="edgeStyle=none;shape=connector;rounded=0;orthogonalLoop=1;jettySize=auto;html=1;exitX=1;exitY=0.5;exitDx=0;exitDy=0;entryX=0.5;entryY=0.5;entryDx=0;entryDy=0;entryPerimeter=0;strokeColor=default;align=center;verticalAlign=middle;fontFamily=Helvetica;fontSize=11;fontColor=default;labelBackgroundColor=default;endArrow=none;" edge="1" parent="1" source="_h28uudLg6-hIbI_Wmnv-19" target="_h28uudLg6-hIbI_Wmnv-68">
          <mxGeometry relative="1" as="geometry">
            <Array as="points">
              <mxPoint x="860" y="1085" />
            </Array>
          </mxGeometry>
        </mxCell>
        <mxCell id="_h28uudLg6-hIbI_Wmnv-84" style="edgeStyle=none;shape=connector;rounded=0;orthogonalLoop=1;jettySize=auto;html=1;exitX=1;exitY=0.5;exitDx=0;exitDy=0;entryX=0.5;entryY=0.5;entryDx=0;entryDy=0;entryPerimeter=0;strokeColor=default;align=center;verticalAlign=middle;fontFamily=Helvetica;fontSize=11;fontColor=default;labelBackgroundColor=default;endArrow=none;" edge="1" parent="1" source="_h28uudLg6-hIbI_Wmnv-19" target="_h28uudLg6-hIbI_Wmnv-69">
          <mxGeometry relative="1" as="geometry">
            <Array as="points">
              <mxPoint x="860" y="1085" />
            </Array>
          </mxGeometry>
        </mxCell>
      </root>
    </mxGraphModel>
  </diagram>
</mxfile>
